<?xml version="1.0" encoding="utf-8"?>
<!-- Generator: Adobe Illustrator 27.4.0, SVG Export Plug-In . SVG Version: 6.00 Build 0)  -->
<svg version="1.1" id="Calque_1" xmlns="http://www.w3.org/2000/svg" xmlns:xlink="http://www.w3.org/1999/xlink" x="0px" y="0px"
	 viewBox="0 0 24 24" style="enable-background:new 0 0 24 24;" xml:space="preserve">
<style type="text/css">
	.st0{fill:#00070C;}
</style>
<g>
	<path class="st0" d="M19.4,13.4c-0.3-0.2-0.6-0.2-0.9,0c-0.3,0.2-0.4,0.4-0.4,0.7v3c0,0.1,0,0.2-0.1,0.3c-0.1,0.1-0.2,0.1-0.3,0.1
		H6.8c-0.1,0-0.2,0-0.3-0.1s-0.1-0.2-0.1-0.2V6.2c0-0.2,0.2-0.4,0.4-0.4h3c0.3,0,0.6-0.2,0.7-0.4c0.2-0.3,0.2-0.6,0-0.9
		c-0.2-0.3-0.4-0.4-0.7-0.4h-3c-1.1,0-2.1,0.9-2.1,2.1v10.9c0,1.1,0.9,2.1,2.1,2.1h10.9c0.6,0,1.1-0.2,1.5-0.6
		c0.4-0.4,0.6-0.9,0.6-1.5v-3C19.8,13.8,19.7,13.6,19.4,13.4z"/>
	<path class="st0" d="M22,2c-0.2-0.2-0.4-0.3-0.6-0.3h-6.1c-0.3,0-0.6,0.2-0.7,0.4c-0.2,0.3-0.2,0.6,0,0.9c0.2,0.3,0.4,0.4,0.7,0.4
		h4l-6.4,6.4c-0.2,0.2-0.3,0.5-0.2,0.8c0.1,0.3,0.3,0.5,0.6,0.6c0.1,0,0.1,0,0.2,0c0.2,0,0.4-0.1,0.6-0.2l6.4-6.4v4
		c0,0.3,0.2,0.6,0.4,0.7c0.3,0.2,0.6,0.2,0.9,0c0.3-0.2,0.4-0.4,0.4-0.7V2.6C22.2,2.4,22.2,2.2,22,2z"/>
</g>
</svg>
