<svg width="48" height="48" viewBox="0 0 48 48" fill="none" xmlns="http://www.w3.org/2000/svg">
<path d="M24 42C33.9411 42 42 33.9411 42 24C42 14.0589 33.9411 6 24 6C14.0589 6 6 14.0589 6 24C6 33.9411 14.0589 42 24 42Z" fill="#EBF7FF"/>
<path fill-rule="evenodd" clip-rule="evenodd" d="M24 7C14.6112 7 7 14.6112 7 24C7 33.3888 14.6112 41 24 41C33.3888 41 41 33.3888 41 24C41 14.6112 33.3888 7 24 7ZM5 24C5 13.5066 13.5066 5 24 5C34.4934 5 43 13.5066 43 24C43 34.4934 34.4934 43 24 43C13.5066 43 5 34.4934 5 24Z" fill="#0063A9"/>
<path fill-rule="evenodd" clip-rule="evenodd" d="M21.5 22.5C21.5 21.9477 21.9477 21.5 22.5 21.5H24C24.5523 21.5 25 21.9477 25 22.5V32H25.5C26.0523 32 26.5 32.4477 26.5 33C26.5 33.5523 26.0523 34 25.5 34H24C23.4477 34 23 33.5523 23 33V23.5H22.5C21.9477 23.5 21.5 23.0523 21.5 22.5Z" fill="#0063A9"/>
<path d="M23.625 18C24.8676 18 25.875 16.9926 25.875 15.75C25.875 14.5074 24.8676 13.5 23.625 13.5C22.3824 13.5 21.375 14.5074 21.375 15.75C21.375 16.9926 22.3824 18 23.625 18Z" fill="#0063A9"/>
</svg>
