<svg width="24" height="25" viewBox="0 0 24 25" fill="none" xmlns="http://www.w3.org/2000/svg">
<path d="M19.1042 6.63077C19.2066 6.52632 19.3288 6.44334 19.4636 6.3867C19.5984 6.33005 19.7432 6.30087 19.8895 6.30087C20.0357 6.30087 20.1805 6.33005 20.3153 6.3867C20.4502 6.44334 20.5723 6.52632 20.6747 6.63077C21.1037 7.06427 21.1097 7.76477 20.6897 8.20577L11.8202 18.6908C11.7195 18.8014 11.5973 18.8902 11.4611 18.952C11.3249 19.0137 11.1775 19.047 11.0279 19.0498C10.8784 19.0526 10.7299 19.0249 10.5914 18.9683C10.4529 18.9117 10.3275 18.8275 10.2227 18.7208L4.82571 13.2518C4.61757 13.0395 4.50098 12.7541 4.50098 12.4568C4.50098 12.1595 4.61757 11.874 4.82571 11.6618C4.92808 11.5573 5.05026 11.4743 5.1851 11.4177C5.31993 11.3611 5.46471 11.3319 5.61096 11.3319C5.75722 11.3319 5.902 11.3611 6.03683 11.4177C6.17167 11.4743 6.29385 11.5573 6.39621 11.6618L10.9742 16.3013L19.0742 6.66377C19.0835 6.65218 19.0936 6.64116 19.1042 6.63077Z" fill="#0063A9"/>
</svg>
