<svg xmlns="http://www.w3.org/2000/svg" width="752" height="752" viewBox="0 0 752 752"><g transform="matrix(-1 0 0 1 751.604 .4)"><path d="M511.2,379.2 L511.2,132 C511.2,58.801 452.399,2.84217094e-14 379.2,2.84217094e-14 L132,2.84217094e-14 C58.801,2.84217094e-14 -2.84217094e-14,58.801 -2.84217094e-14,132 L-2.84217094e-14,379.2 C-2.84217094e-14,452.399 58.801,511.2 132,511.2 L379.2,511.2 C452.403,511.2 511.2,452.403 511.2,379.2 Z M73.2,379.2 L73.2,132 C73.2,98.398 99.598,72 133.2,72 L380.4,72 C414.002,72 440.4,98.398 440.4,132 L440.4,379.2 C440.4,412.802 414.002,439.2 380.4,439.2 L132,439.203906 C99.602,439.203906 72,412.801906 73.203,379.203906 L73.2,379.2 Z"/><path d="M619.2,240 L559.2,240 L559.2,312 L619.2,312 C652.802,312 679.2,338.398 679.2,372 L679.2,619.2 C679.2,652.802 652.802,679.2 619.2,679.2 L372,679.203906 C338.398,679.203906 312,652.805906 312,619.203906 L312,559.203906 L240,559.203906 L240,619.203906 C240,692.402906 298.801,751.203906 372,751.203906 L619.2,751.203906 C692.399,751.203906 751.203906,692.402906 751.203906,619.203906 L751.203906,372.003906 C751.203906,298.804906 691.203906,240 619.203906,240 L619.2,240 Z"/></g></svg>