<svg width="24" height="18" viewBox="0 0 24 18" fill="none" xmlns="http://www.w3.org/2000/svg">
<path fill-rule="evenodd" clip-rule="evenodd" d="M0.333008 1C0.333008 0.447715 0.780723 0 1.33301 0H22.6663C23.2186 0 23.6663 0.447715 23.6663 1C23.6663 1.55228 23.2186 2 22.6663 2H1.33301C0.780723 2 0.333008 1.55228 0.333008 1ZM0.333008 9C0.333008 8.44772 0.780723 8 1.33301 8H22.6663C23.2186 8 23.6663 8.44772 23.6663 9C23.6663 9.55229 23.2186 10 22.6663 10H1.33301C0.780723 10 0.333008 9.55229 0.333008 9ZM0.333008 17C0.333008 16.4477 0.780723 16 1.33301 16H10.6663C11.2186 16 11.6663 16.4477 11.6663 17C11.6663 17.5523 11.2186 18 10.6663 18H1.33301C0.780723 18 0.333008 17.5523 0.333008 17Z" fill="#00070C"/>
</svg>
