<svg width="49" height="49" viewBox="0 0 49 49" fill="none" xmlns="http://www.w3.org/2000/svg">
<mask id="mask0_1309_11335" style="mask-type:alpha" maskUnits="userSpaceOnUse" x="0" y="0" width="49" height="49">
<rect x="0.5" y="0.887787" width="48" height="48" fill="#575756"/>
</mask>
<g mask="url(#mask0_1309_11335)">
<path d="M23.3889 34.8878H25.6111V25.9989H34.5V23.7767H25.6111V14.8878H23.3889V23.7767H14.5V25.9989H23.3889V34.8878ZM24.5 44.8878C21.7222 44.8878 19.1207 44.3604 16.6956 43.3056C14.2689 42.2493 12.1578 40.8226 10.3622 39.0256C8.56519 37.23 7.13852 35.1189 6.08222 32.6922C5.02741 30.267 4.5 27.6656 4.5 24.8878C4.5 22.11 5.02741 19.5078 6.08222 17.0811C7.13852 14.6559 8.56519 12.5448 10.3622 10.7478C12.1578 8.95223 14.2689 7.52631 16.6956 6.47001C19.1207 5.41519 21.7222 4.88779 24.5 4.88779C27.2778 4.88779 29.88 5.41519 32.3067 6.47001C34.7319 7.52631 36.843 8.95223 38.64 10.7478C40.4356 12.5448 41.8615 14.6559 42.9178 17.0811C43.9726 19.5078 44.5 22.11 44.5 24.8878C44.5 27.6656 43.9726 30.267 42.9178 32.6922C41.8615 35.1189 40.4356 37.23 38.64 39.0256C36.843 40.8226 34.7319 42.2493 32.3067 43.3056C29.88 44.3604 27.2778 44.8878 24.5 44.8878ZM24.5 42.6656C29.463 42.6656 33.6667 40.9433 37.1111 37.4989C40.5556 34.0545 42.2778 29.8508 42.2778 24.8878C42.2778 19.9248 40.5556 15.7211 37.1111 12.2767C33.6667 8.83223 29.463 7.11001 24.5 7.11001C19.537 7.11001 15.3333 8.83223 11.8889 12.2767C8.44444 15.7211 6.72222 19.9248 6.72222 24.8878C6.72222 29.8508 8.44444 34.0545 11.8889 37.4989C15.3333 40.9433 19.537 42.6656 24.5 42.6656Z" fill="white"/>
</g>
</svg>
